# xmcd
#
# Track frame offsets: 
#        150
#        22376
#        41697
#        71264
#        123035
#        208455
#        227109
#
# Disc length: 3609 seconds
#
# Revision: 0
# Processed by: cddbd v1.5.2PL0 Copyright (c) Steve Scherf et al.
# Submitted via: ExactAudioCopy v0.99pb5
#
DISCID=630e1707
DTITLE=Henrik Freischlade - Tour 2010 Live
DYEAR=2010
DGENRE=Rock
TTITLE0=I
TTITLE1=Got It Made
TTITLE2=So Damn Cool
TTITLE3=She's Back (For Another Try)
TTITLE4=Bad Dreams_Wolkenwinde
TTITLE5=Never Be True
TTITLE6=The Bridge
EXTD=
EXTT0=
EXTT1=
EXTT2=
EXTT3=
EXTT4=
EXTT5=
EXTT6=
PLAYORDER=
